<?xml version="1.0" encoding="utf-8"?>
<!-- Generator: Adobe Illustrator 15.0.0, SVG Export Plug-In . SVG Version: 6.00 Build 0)  -->
<!DOCTYPE svg PUBLIC "-//W3C//DTD SVG 1.1//EN" "http://www.w3.org/Graphics/SVG/1.1/DTD/svg11.dtd">
<svg version="1.1" id="Layer_1" xmlns="http://www.w3.org/2000/svg" xmlns:xlink="http://www.w3.org/1999/xlink" x="0px" y="0px"
	 width="144px" height="144px" viewBox="0 0 144 144" enable-background="new 0 0 144 144" xml:space="preserve">
<g>
	<g>
		<g>
			<polygon fill="#A8A8A8" points="79.611,98.314 49.8,68.501 54.119,64.187 83.918,93.99 			"/>
			<polygon fill="#A8A8A8" points="113.066,64.932 108.747,69.251 78.943,39.456 83.258,35.128 			"/>
			<path fill="#A8A8A8" d="M54.2,64.271l-4.332,4.298l-1.877-1.87c-11.478-11.486-8.05-25.372-0.008-33.421
				c8.059-8.05,21.95-11.478,33.424,0.004l1.881,1.878l-4.308,4.33l-1.89-1.889C64.112,24.622,47.71,37.008,46.823,49.084
				c-0.333,4.765,1.557,9.37,5.484,13.292L54.2,64.271z"/>
			<polygon fill="#A8A8A8" points="54.891,123.143 50.567,127.461 20.755,97.655 25.087,93.338 			"/>
			<path fill="#A8A8A8" d="M49.885,68.586l-1.894-1.887c-8.553-8.557-18.611-6.172-24.771-0.008c-6.17,6.172-8.562,16.228,0,24.784
				l1.884,1.891l-4.323,4.311l-1.885-1.883c-11.478-11.478-8.055-25.369,0-33.422c8.046-8.044,21.933-11.478,33.412,0.004
				l1.875,1.875L49.885,68.586z"/>
		</g>
		<path fill="#A8A8A8" d="M50.567,127.461c2.882,2.885,7.201-1.437,4.323-4.318"/>
		<path fill="#A8A8A8" d="M79.568,98.275c2.884,2.88,7.207-1.439,4.32-4.319"/>
		<path fill="#A8A8A8" d="M108.713,69.229c2.878,2.878,7.206-1.441,4.319-4.326"/>
	</g>
	<g>
		<g>
			<polygon fill="#A8A8A8" points="65.346,46.383 95.154,76.189 90.839,80.512 61.04,50.708 			"/>
			<polygon fill="#A8A8A8" points="31.892,79.762 36.21,75.441 66.011,105.244 61.7,109.569 			"/>
			<path fill="#A8A8A8" d="M90.754,80.427l4.336-4.301L96.962,78c11.481,11.479,8.056,25.372,0.004,33.418
				c-8.045,8.052-21.94,11.48-33.42,0l-1.884-1.885l4.314-4.326l1.89,1.887c12.974,12.979,29.381,0.596,30.259-11.479
				c0.348-4.766-1.548-9.363-5.479-13.298L90.754,80.427z"/>
			<polygon fill="#A8A8A8" points="90.072,21.554 94.391,17.235 124.198,47.043 119.871,51.358 			"/>
			<path fill="#A8A8A8" d="M95.073,76.106l1.889,1.895c8.558,8.559,18.611,6.17,24.776,0c6.17-6.165,8.559-16.222,0.004-24.784
				l-1.889-1.889l4.323-4.313l1.88,1.886c11.483,11.476,8.06,25.376,0.006,33.424c-8.043,8.044-21.935,11.479-33.416-0.008
				l-1.871-1.875L95.073,76.106z"/>
		</g>
		<path fill="#A8A8A8" d="M94.395,17.235c-2.886-2.888-7.209,1.437-4.321,4.324"/>
		<path fill="#A8A8A8" d="M65.389,46.427c-2.878-2.884-7.202,1.439-4.324,4.322"/>
		<path fill="#A8A8A8" d="M36.249,75.468c-2.891-2.876-7.214,1.447-4.323,4.328"/>
	</g>
</g>
</svg>
