<?xml version="1.0" encoding="utf-8"?>
<!-- Generator: Adobe Illustrator 15.0.0, SVG Export Plug-In . SVG Version: 6.00 Build 0)  -->
<!DOCTYPE svg PUBLIC "-//W3C//DTD SVG 1.1//EN" "http://www.w3.org/Graphics/SVG/1.1/DTD/svg11.dtd">
<svg version="1.1" id="Layer_1" xmlns="http://www.w3.org/2000/svg" xmlns:xlink="http://www.w3.org/1999/xlink" x="0px" y="0px"
	 width="144px" height="144px" viewBox="0 0 144 144" enable-background="new 0 0 144 144" xml:space="preserve">
<g id="TqnN7j_1_">
	
		<image overflow="visible" width="27" height="25" id="TqnN7j" xlink:href="3B69E9AF.jpg"  transform="matrix(0.5 0 0 0.5 214.5 252.5)">
	</image>
</g>
<g id="enTE0t.tif">
	<g>
		<path fill-rule="evenodd" clip-rule="evenodd" fill="#B8B8B8" d="M106.162,13c1.771,0,3.54,0,5.311,0
			c-0.039,0.501,0.819,0.104,1.155,0.231c0.151,5.67,7.365,8.581,12.238,5.311c1.479,1.292,2.864,2.678,4.156,4.157
			c-3.71,4.599-0.843,12.363,5.312,12.47c0,2.232,0,4.464,0,6.696c-6.766-0.49-9.102,8.493-5.08,12.701
			c-1.657,1.576-2.959,3.507-5.08,4.619c-4.326-4.373-13.118-1.263-12.932,5.08c-1.979,0.482-4.619,0.135-6.466-0.231
			c0.351-6.655-7.774-9.621-12.47-5.773c-1.775-1.072-3.042-2.654-4.156-4.387c4.358-4.332,0.881-12.333-4.85-12.701
			c-0.589-1.861-0.056-4.49,0-6.466c5.934,0.248,8.961-7.612,5.312-12.008c1.646-1.74,3.144-3.629,5.311-4.85
			C98.429,21.523,105.747,18.301,106.162,13z M99.465,43.02c3.806,8.504,17.691,6.865,19.397-2.078
			c1.489-7.805-4.898-12.923-11.084-12.239C100.795,29.476,96.591,36.598,99.465,43.02z"/>
		<path fill-rule="evenodd" clip-rule="evenodd" fill="#B8B8B8" d="M73.603,131c-0.154,0-0.309,0-0.462,0
			c-3.14-11.059-21.157-10.808-24.709-0.23c-4.021-1.137-7.579-2.735-10.853-4.619c3.95-11.587-5.406-21.614-16.857-17.78
			c-2.188-2.585-3.026-6.52-4.388-9.93c0-0.154,0-0.308,0-0.462c10.994-4.771,9.448-20.082,0.231-24.478
			c1.299-3.936,2.573-7.895,4.849-10.853c10.809,2.651,19.063-5.278,16.626-16.626c3.437-2.105,7.498-3.586,11.777-4.849
			c3.232,7.066,14.165,8.852,20.321,3.925c1.467-1.174,2.356-2.558,3.695-3.463c3.983,1.096,7.67,2.49,10.622,4.618
			c-1.935,11.139,5.581,18.703,16.857,16.626c1.833,3.017,3.18,6.518,4.388,10.16c-7.42,2.902-9.421,14.876-3.695,21.014
			c1.283,1.375,2.775,1.781,4.157,3.233c-0.954,4.05-2.298,7.709-4.157,10.853c-11.866-3.394-20.913,6.721-16.856,17.781
			C81.685,127.998,77.79,129.646,73.603,131z M51.434,70.499c-4.342,2.646-7.897,6.913-8.544,13.855
			c-1.234,13.248,9.872,21.429,21.014,20.09c9.042-1.087,15.703-8.971,15.703-18.243c0-11.075-9.21-19.51-21.014-18.011
			C55.333,68.604,53.224,69.408,51.434,70.499z"/>
	</g>
</g>
</svg>
