<?xml version="1.0" encoding="utf-8"?>
<!-- Generator: Adobe Illustrator 15.0.0, SVG Export Plug-In . SVG Version: 6.00 Build 0)  -->
<!DOCTYPE svg PUBLIC "-//W3C//DTD SVG 1.1//EN" "http://www.w3.org/Graphics/SVG/1.1/DTD/svg11.dtd">
<svg version="1.1" id="Layer_1" xmlns="http://www.w3.org/2000/svg" xmlns:xlink="http://www.w3.org/1999/xlink" x="0px" y="0px"
	 width="144px" height="144px" viewBox="0 0 144 144" enable-background="new 0 0 144 144" xml:space="preserve">
<rect x="22.001" y="23.666" fill="none" stroke="#FFFFFF" stroke-width="10" stroke-miterlimit="10" width="96.666" height="96.668"/>
<line fill="none" stroke="#FFFFFF" stroke-width="14" stroke-miterlimit="10" x1="32.001" y1="46" x2="109.335" y2="46"/>
<line fill="none" stroke="#FFFFFF" stroke-width="14" stroke-miterlimit="10" x1="31.667" y1="72" x2="109.001" y2="72"/>
<line fill="none" stroke="#FFFFFF" stroke-width="14" stroke-miterlimit="10" x1="32.001" y1="98.667" x2="109.335" y2="98.667"/>
<g>
	<path fill-rule="evenodd" clip-rule="evenodd" fill="#B8B8B8" d="M47.739,13.928c2.903,0,5.806,0,8.709,0
		c27.707,1.417,48.437,34.125,31.104,59.305c14.987,14.872,30.7,29.019,46.448,43.13c0,0.276,0,0.553,0,0.83
		c-4.566,3.313-8.339,7.42-12.441,11.197c-0.139,0-0.276,0-0.415,0c-15.34-14.382-30.717-28.726-46.448-42.716
		C49.177,100.649,12.164,84.598,10,56.644c0-2.626,0-5.253,0-7.88C13.914,28.485,27.01,17.39,47.739,13.928z M24.93,41.299
		c-9.792,19.862,7.035,36.91,23.224,38.568c15.808,1.619,33.714-8.351,33.592-27.371c-0.11-17.039-15.932-28.836-34.007-26.542
		C36.468,27.385,27.934,35.206,24.93,41.299z"/>
</g>
</svg>
