<?xml version="1.0" encoding="utf-8"?>
<!-- Generator: Adobe Illustrator 15.0.0, SVG Export Plug-In . SVG Version: 6.00 Build 0)  -->
<!DOCTYPE svg PUBLIC "-//W3C//DTD SVG 1.1//EN" "http://www.w3.org/Graphics/SVG/1.1/DTD/svg11.dtd">
<svg version="1.1" id="Layer_1" xmlns="http://www.w3.org/2000/svg" xmlns:xlink="http://www.w3.org/1999/xlink" x="0px" y="0px"
	 width="144px" height="144px" viewBox="0 0 144 144" enable-background="new 0 0 144 144" xml:space="preserve">
<g id="H7ycqC.tif">
	<g>
		<path fill-rule="evenodd" clip-rule="evenodd" fill="#B8B8B8" stroke="#B8B8B8" stroke-miterlimit="10" d="M67.455,10.08
			c36.718-3.181,66.913,24.982,66.913,61.716c0,39.448-31.073,62.021-61.716,62.366c-33.454,0.375-62.598-24.622-63.015-61.717
			C9.247,37.667,33.878,12.989,67.455,10.08z M26.528,45.81c-20.637,36.483,6.717,79.166,46.124,78.606
			c34.344-0.486,60.745-34.467,49.373-69.511c-6.867-21.167-26.951-36.549-52.621-35.081C47.841,21.057,33.807,32.942,26.528,45.81z
			"/>
	</g>
</g>
<polyline fill-rule="evenodd" clip-rule="evenodd" fill="none" stroke="#B8B8B8" stroke-width="12" stroke-miterlimit="10" points="
	72,25.671 72,75.044 111.631,50.358 "/>
</svg>
