<?xml version="1.0" encoding="utf-8"?>
<!-- Generator: Adobe Illustrator 15.0.0, SVG Export Plug-In . SVG Version: 6.00 Build 0)  -->
<!DOCTYPE svg PUBLIC "-//W3C//DTD SVG 1.1//EN" "http://www.w3.org/Graphics/SVG/1.1/DTD/svg11.dtd">
<svg version="1.1" id="Layer_1" xmlns="http://www.w3.org/2000/svg" xmlns:xlink="http://www.w3.org/1999/xlink" x="0px" y="0px"
	 width="144px" height="144px" viewBox="0 0 144 144" enable-background="new 0 0 144 144" xml:space="preserve">
<g id="TqnN7j_1_">
	
		<image overflow="visible" width="27" height="25" id="TqnN7j" xlink:href="B16289EE.jpg"  transform="matrix(0.5 0 0 0.5 214.5 252.5)">
	</image>
</g>
<g id="FUm71N.tif">
	<g>
		<path fill-rule="evenodd" clip-rule="evenodd" fill="#B8B8B8" d="M70.218,5.908c0.958,0,1.915,0,2.874,0
			c12.147,3.934,8.046,26.817,8.046,45.402c0,13.495,2.569,29.265-9.196,29.885c-12.859,0.679-9.77-17.457-9.77-30.46
			C62.172,32.321,58.164,9.015,70.218,5.908z"/>
		<path fill-rule="evenodd" clip-rule="evenodd" fill="#B8B8B8" d="M132.286,72c0,2.874,0,5.746,0,8.621
			c-4.665,33.455-23.474,52.771-56.896,57.471c-2.491,0-4.982,0-7.472,0c-12.732-1.422-26.178-6.394-35.058-13.793
			C11.073,106.142,3.911,69.13,21.942,43.264c4.786-6.866,13.276-18.904,22.414-18.39c4.777,0.268,9.038,4.781,8.621,10.344
			c-0.584,7.789-10.23,10.458-14.368,15.517c-4.983,6.095-9.3,13.566-9.196,26.437c0.193,23.855,16.955,39.94,37.357,41.953
			c35.754,3.534,61.583-39.467,37.931-68.39c-3.837-4.693-14.088-8.301-14.367-16.092c-0.178-4.931,3.593-9.673,9.194-9.769
			c4.187-0.072,9.461,4.104,12.645,6.896C122.396,40.737,131.217,58.211,132.286,72z"/>
	</g>
</g>
</svg>
