<?xml version="1.0" encoding="utf-8"?>
<!-- Generator: Adobe Illustrator 15.0.0, SVG Export Plug-In . SVG Version: 6.00 Build 0)  -->
<!DOCTYPE svg PUBLIC "-//W3C//DTD SVG 1.1//EN" "http://www.w3.org/Graphics/SVG/1.1/DTD/svg11.dtd">
<svg version="1.1" id="Layer_1" xmlns="http://www.w3.org/2000/svg" xmlns:xlink="http://www.w3.org/1999/xlink" x="0px" y="0px"
	 width="144px" height="144px" viewBox="0 0 144 144" enable-background="new 0 0 144 144" xml:space="preserve">
<g id="L4jlRu.tif">
	<g>
		<path fill-rule="evenodd" clip-rule="evenodd" fill="#FFFFFF" d="M119.126,14.138c0.221,0,0.44,0,0.66,0
			c0,20.319,0,43.749,0,65.373c0,9.021,1.287,19.905-1.32,26.083c-2.988,7.081-12.599,14.122-22.121,15.188
			c-12.483,1.396-25.662-4.096-22.782-18.489c2.621-13.091,20.186-21.694,35.329-16.839c0.77-14.527,0.109-30.484,0.329-45.562
			c-16.372,1.566-33.934,4.805-50.845,6.933c-0.602,15.67-0.33,32.465-0.33,49.194c0,5.46,0.786,11.577-0.331,16.178
			c-2.271,9.364-13.018,16.444-22.451,17.499c-13.557,1.517-28.796-7.436-21.461-22.451c4.58-9.374,19.76-18.074,33.677-12.546
			c0-23.332,0-46.663,0-69.995C71.331,21.15,95.43,17.846,119.126,14.138z"/>
	</g>
</g>
</svg>
